<svg xmlns="http://www.w3.org/2000/svg" version="1.1" xmlns:xlink="http://www.w3.org/1999/xlink" width="386.58" height="249.04"><svg xmlns:dc="http://purl.org/dc/elements/1.1/" xmlns:cc="http://creativecommons.org/ns#" xmlns:rdf="http://www.w3.org/1999/02/22-rdf-syntax-ns#" xmlns:svg="http://www.w3.org/2000/svg" xmlns="http://www.w3.org/2000/svg" xmlns:sodipodi="http://sodipodi.sourceforge.net/DTD/sodipodi-0.dtd" xmlns:inkscape="http://www.inkscape.org/namespaces/inkscape" inkscape:version="1.0 (4035a4fb49, 2020-05-01)" sodipodi:docname="Robotics 949 logo vector.svg" id="SvgjsSvg1030" version="1.1" viewBox="0 0 386.58 249.04">
  <metadata id="SvgjsMetadata1029">
    <rdf:rdf>
      <cc:work rdf:about="">
        <dc:format>image/svg+xml</dc:format>
        <dc:type rdf:resource="http://purl.org/dc/dcmitype/StillImage"></dc:type>
        <dc:title></dc:title>
      </cc:work>
    </rdf:rdf>
  </metadata>
  <sodipodi:namedview inkscape:current-layer="svg851" inkscape:window-maximized="0" inkscape:window-y="734" inkscape:window-x="4816" inkscape:cy="124.52" inkscape:cx="193.29" inkscape:zoom="1.831445" showgrid="false" id="SvgjsSodipodi:namedview1028" inkscape:window-height="1206" inkscape:window-width="2442" inkscape:pageshadow="2" inkscape:pageopacity="0" guidetolerance="10" gridtolerance="10" objecttolerance="10" borderopacity="1" bordercolor="#666666" pagecolor="#002249"></sodipodi:namedview>
  <defs id="SvgjsDefs1027">
    <style id="SvgjsStyle1026">.cls-1{fill:none;stroke:#000;stroke-miterlimit:10;stroke-width:.5px;}</style>
  </defs>
  <g id="SvgjsG1025">
    <path style="fill:#fdba30;fill-opacity:1;stroke:#fdba30;stroke-opacity:1" id="SvgjsPath1024" d="M193.14,69.98l-34.85,40.85h70.47s3.32,5.62,10.91,5.87,51.57,0,51.57,0v13.21h-65.74v33.06h84.32s12.45,.7,14.87-12.57,0-105,0-105c0,0-.89-12.32-14.36-14.11s-71.43,0-71.43,0c0,0-12.96,2.3-13.15,13.72s0,19.53,0,19.53h65.81v19.47h-32.68v-12.38h-32.36v32.43h-33.45l.06-34.09Z" class="cls-1"></path>
    <path style="fill:#fdba30;fill-opacity:1;stroke:#fdba30;stroke-opacity:1" id="SvgjsPath1023" d="M115.4,130.43H42.89l21.45,32.56,129.06,.76v-20.04l-42.89-.38s-6.31-.06-14.04-2.55c-2.17-.7-11.49-6-13-12.9-3.46-10.46-1.58-17.37-1.17-18.63,4.34-13.15,23.11-38.04,27.7-44.04s26.81-32.43,43.15-33.51H62.42s-11.23,3.26-13.02,13.85c-.13,10.98-.13,19.02-.13,19.02H115.4v19.4h-32.43v-12.77l-33.7,.26v30.64s1.02,12,13.02,14.94h53.11v13.4Z" class="cls-1"></path>
  </g>
  <g id="SvgjsG1022">
    <path style="fill:#fdba30;fill-opacity:1;stroke:#fdba30;stroke-opacity:1" id="SvgjsPath1021" d="M169.44,24.43h-27.49S186.96,6.06,238.66,.25c0,0-60.01,16.57-69.22,24.18Z" class="cls-1"></path>
    <path style="fill:#fdba30;fill-opacity:1;stroke:#fdba30;stroke-opacity:1" id="SvgjsPath1020" d="M42.89,84.86s-3,25.34,7.53,32.62l-2.11,5.36H30.06l11.33,18.11s-25.05,58.29,38.95,58.47,125.51-28.9,138.21-36.42v8.16s-39.66,25.06-32.81,27.87,62.43-13.57,84.68-27.83h19.53s-46.59,31.85-40.34,35.45c8.43,4.85,67.83-20,93.53-36.94-11.04,13.87-193.53,119.74-306.13,61.96-76.68-44.17-12.51-134.23,5.87-146.81Z" class="cls-1"></path>
    <path style="fill:#fdba30;fill-opacity:1;stroke:#fdba30;stroke-opacity:1" id="SvgjsPath1019" d="M332.1,136.05v-6.06s46.6-42.51,54.26-57.77c-7.72,18.45-54.26,63.83-54.26,63.83Z" class="cls-1"></path>
    <path style="fill:#fdba30;fill-opacity:1;stroke:#fdba30;stroke-opacity:1" id="SvgjsPath1018" d="M331.91,69.07v2.98s5.11-4.87,18.04-29.57c0,0-15.49,25.53-18.04,26.6Z" class="cls-1"></path>
  </g>
</svg><style>@media (prefers-color-scheme: light) { :root { filter: none; } }
@media (prefers-color-scheme: dark) { :root { filter: none; } }
</style></svg>